<?xml version="1.0" encoding="UTF-8" standalone="no"?>
<svg
   xmlns:dc="http://purl.org/dc/elements/1.1/"
   xmlns:cc="http://creativecommons.org/ns#"
   xmlns:rdf="http://www.w3.org/1999/02/22-rdf-syntax-ns#"
   xmlns:svg="http://www.w3.org/2000/svg"
   xmlns="http://www.w3.org/2000/svg"
   xmlns:sodipodi="http://sodipodi.sourceforge.net/DTD/sodipodi-0.dtd"
   xmlns:inkscape="http://www.inkscape.org/namespaces/inkscape"
   sodipodi:docname="searxng.svg"
   inkscape:version="1.0 (4035a4fb49, 2020-05-01)"
   id="svg8"
   version="1.1"
   viewBox="0 0 120 38.709602"
   height="38.709602mm"
   width="100mm">
  <defs
     id="defs2" />
  <sodipodi:namedview
     inkscape:window-maximized="1"
     inkscape:window-y="2149"
     inkscape:window-x="-7"
     inkscape:window-height="1346"
     inkscape:window-width="2560"
     fit-margin-bottom="0"
     fit-margin-right="0"
     fit-margin-left="0"
     fit-margin-top="0"
     showgrid="false"
     inkscape:document-rotation="0"
     inkscape:current-layer="layer1"
     inkscape:document-units="mm"
     inkscape:cy="235.27775"
     inkscape:cx="1236.8338"
     inkscape:zoom="0.7"
     inkscape:pageshadow="2"
     inkscape:pageopacity="0.0"
     borderopacity="1.0"
     bordercolor="#666666"
     pagecolor="#ffffff"
     id="base" />
  <metadata
     id="metadata5">
    <rdf:RDF>
      <cc:Work
         rdf:about="">
        <dc:format>image/svg+xml</dc:format>
        <dc:type
           rdf:resource="http://purl.org/dc/dcmitype/StillImage" />
        <dc:title></dc:title>
      </cc:Work>
    </rdf:RDF>
  </metadata>
  <g
     transform="translate(23,-7.5)"
     id="layer1"
     inkscape:groupmode="layer"
     inkscape:label="Layer 1">
    <g
       inkscape:export-ydpi="96"
       inkscape:export-xdpi="96"
       transform="translate(-25.702381,-86.178571)"
       style="font-style:normal;font-weight:normal;font-size:50.8px;line-height:1.25;font-family:sans-serif;fill:#487cff;fill-opacity:1;stroke:none;stroke-width:0.264583"
       id="text884"
       aria-label="SearXNG">
      <path
         id="path886"
         style="font-style:normal;font-variant:normal;font-weight:normal;font-stretch:normal;font-size:50.8px;font-family:'Libre Franklin';-inkscape-font-specification:'Libre Franklin';fill:#487cff;fill-opacity:1;stroke-width:0.264583"
         d="m 56.494069,102.70358 q -1.1684,-1.2192 -3.047999,-2.032 -1.8796,-0.812802 -4.4196,-0.812802 -3.1496,0 -5.08,1.320802 -1.9304,1.27 -1.9304,3.4544 0,2.3368 3.7084,3.6068 l 7.6708,2.6416 q 3.962399,1.3208 5.841999,3.4036 1.8796,2.0828 1.8796,5.1308 0,4.064 -2.1844,7.0104 -2.1844,2.8956 -5.943599,4.4196 -3.7592,1.524 -8.4836,1.524 -5.334,0 -9.0424,-1.778 -3.7084,-1.8288 -5.5372,-5.1308 -0.2032,-0.3556 -0.2032,-0.7112 0,-0.3556 0.4064,-0.6096 l 4.0132,-2.4384 q 0.3556,-0.254 0.762,-0.254 0.6096,0 1.1176,0.6604 1.3208,1.6256 2.3876,2.54 1.1176,0.8636 2.6924,1.3208 1.6256,0.4572 4.1656,0.4572 3.2004,0 5.1816,-1.1684 1.9812,-1.2192 1.9812,-3.7592 0,-1.27 -0.9144,-2.0828 -0.9144,-0.8636 -2.9464,-1.5748 l -7.4168,-2.4892 q -3.6576,-1.2192 -5.588,-3.556 -1.8796,-2.3876 -1.8796,-5.4356 0,-3.7592 2.1336,-6.654802 2.1336,-2.8956 5.6896,-4.4704 3.6068,-1.5748 7.874,-1.5748 4.3688,0 7.670799,1.5748 3.3528,1.524 5.1816,3.9624 0.4064,0.508 0.4064,0.762 0,0.254002 -0.3556,0.457202 l -4.5212,2.9972 q -0.0508,0.0508 -0.2032,0.0508 -0.3048,0 -1.0668,-0.762 z" />
      <path
         id="path894"
         style="font-style:normal;font-variant:normal;font-weight:normal;font-stretch:normal;font-size:50.8px;font-family:'Libre Franklin';-inkscape-font-specification:'Libre Franklin';fill:#487cff;fill-opacity:1;stroke-width:0.264583"
         transform="translate(-85,0)"
         d="m 176.48129,130.08478 q 0.4572,0.8128 0.4572,1.2192 0,0.3048 -0.254,0.4572 -0.254,0.1016 -0.762,0.1016 h -7.0612 q -0.6096,0 -0.9652,-0.1524 -0.3048,-0.1524 -0.508,-0.6096 l -5.6388,-11.7348 q -0.254,-0.508 -0.508,-0.508 -0.1524,0 -0.5588,0.5588 l -9.0424,11.8364 q -0.254,0.4064 -0.6096,0.508 -0.3048,0.1016 -1.0668,0.1016 h -5.9436 q -1.016,0 -1.016,-0.6604 0,-0.4572 0.762,-1.524 l 13.0048,-16.3068 q 0.5588,-0.6096 0.5588,-1.0668 0,-0.3556 -0.1016,-0.5588 l -8.4836,-16.560802 q -0.1524,-0.254 -0.1524,-0.508 0,-0.508 0.762,-0.508 h 7.4168 q 0.6604,0 0.9144,0.1524 0.254,0.1524 0.508,0.6604 l 4.9276,10.363202 q 0.1524,0.4064 0.3556,0.4064 0.2032,0 0.508,-0.4064 l 8.0264,-10.566402 q 0.3048,-0.4064 0.5588,-0.508 0.3048,-0.1016 0.9652,-0.1016 h 6.5532 q 0.6096,0 0.6096,0.5588 0,0.4064 -0.3048,0.9144 l -12.5984,15.646402 q -0.508,0.6604 -0.508,0.9144 0,0.2032 0.1524,0.508 z" />
     </g>
  </g>
</svg>
